HIERARCHY
ROOT Hips
{
    OFFSET 0.000000 0.000000 0.000000
    CHANNELS 6 Xposition Yposition Zposition Zrotation Xrotation Yrotation
    JOINT Spine
    {
        OFFSET -0.000000 0.081015 0.000000
        CHANNELS 3 Zrotation Xrotation Yrotation
        JOINT Spine1
        {
            OFFSET -0.000000 0.240812 0.000000
            CHANNELS 3 Zrotation Xrotation Yrotation
            JOINT Neck
            {
                OFFSET -0.000000 0.239823 0.021802
                CHANNELS 3 Zrotation Xrotation Yrotation
                JOINT Head
                {
                    OFFSET -0.000000 0.148909 -0.021273
                    CHANNELS 3 Zrotation Xrotation Yrotation
                    End Site
                    {
                        OFFSET -0.000000 0.197598 0.000000
                    }
                }
            }
            JOINT LeftShoulder
            {
                OFFSET 0.039829 0.224972 -0.001181
                CHANNELS 3 Zrotation Xrotation Yrotation
                JOINT LeftArm
                {
                    OFFSET 0.107364 0.000000 0.000000
                    CHANNELS 3 Zrotation Xrotation Yrotation
                    JOINT LeftForeArm
                    {
                        OFFSET 0.283104 0.000000 0.000000
                        CHANNELS 3 Zrotation Xrotation Yrotation
                        JOINT LeftHand
                        {
                            OFFSET 0.324767 0.000000 0.000000
                            CHANNELS 3 Zrotation Xrotation Yrotation
                            End Site
                            {
                                OFFSET 0.148198 0.000000 0.000000
                            }
                        }
                    }
                }
            }
            JOINT RightShoulder
            {
                OFFSET -0.039119 0.224972 -0.001181
                CHANNELS 3 Zrotation Xrotation Yrotation
                JOINT RightArm
                {
                    OFFSET -0.107364 0.000000 0.000000
                    CHANNELS 3 Zrotation Xrotation Yrotation
                    JOINT RightForeArm
                    {
                        OFFSET -0.283104 0.000000 0.000000
                        CHANNELS 3 Zrotation Xrotation Yrotation
                        JOINT RightHand
                        {
                            OFFSET -0.324767 0.000000 0.000000
                            CHANNELS 3 Zrotation Xrotation Yrotation
                            End Site
                            {
                                OFFSET -0.148198 0.000000 0.000000
                            }
                        }
                    }
                }
            }
        }
    }
    JOINT LeftUpLeg
    {
        OFFSET 0.098799 0.000000 0.000000
        CHANNELS 3 Zrotation Xrotation Yrotation
        JOINT LeftLeg
        {
            OFFSET -0.000000 -0.332632 0.000000
            CHANNELS 3 Zrotation Xrotation Yrotation
            JOINT LeftFoot
            {
                OFFSET -0.000000 -0.498967 0.000000
                CHANNELS 3 Zrotation Xrotation Yrotation
                JOINT LeftToeBase
                {
                    OFFSET -0.000000 -0.064219 0.148198
                    CHANNELS 3 Zrotation Xrotation Yrotation
                    End Site
                    {
                        OFFSET -0.000000 0.000000 0.039520
                    }
                }
            }
        }
    }
    JOINT RightUpLeg
    {
        OFFSET -0.098799 0.000000 0.000000
        CHANNELS 3 Zrotation Xrotation Yrotation
        JOINT RightLeg
        {
            OFFSET -0.000000 -0.332632 0.000000
            CHANNELS 3 Zrotation Xrotation Yrotation
            JOINT RightFoot
            {
                OFFSET -0.000000 -0.498967 0.000000
                CHANNELS 3 Zrotation Xrotation Yrotation
                JOINT RightToeBase
                {
                    OFFSET -0.000000 -0.064219 0.148198
                    CHANNELS 3 Zrotation Xrotation Yrotation
                    End Site
                    {
                        OFFSET -0.000000 0.000000 0.039520
                    }
                }
            }
        }
    }
}
MOTION
Frames:    5
Frame Time:    0.010000
0.014027    0.856898    0.243322    -5.967388    -0.257448    -66.932373    -4.895762    -0.077078    2.820432    6.794019    11.580441    0.271286    -5.980010    40.593380    15.641573    -15.044060    -1.714432    12.465687    -20.482550    21.799452    3.657798    -47.058891    1.975282    -19.947588    21.316593    -42.418041    -110.515335    49.023937    -12.553336    5.207192    11.367519    29.228767    3.156808    34.897160    30.212830    37.205963    -91.846344    -46.972813    21.321037    -39.460392    -25.966728    -10.755395    16.881105    -13.559303    11.263544    -9.248721    38.662014    -1.900504    5.286410    -15.481820    14.827539    0.000000    0.000000    0.000000    -20.123377    -13.366086    -16.810289    6.591625    31.039387    -10.991086    16.019194    -10.647006    -8.820494    0.000000    0.000000    0.000000    
0.014325    0.857913    0.243888    -5.977997    -0.130287    -67.350395    -4.764547    -0.131810    2.923218    6.639147    11.476802    0.327811    -5.942809    40.841183    15.723102    -14.971005    -1.957804    12.523781    -20.337393    21.618448    3.505317    -46.985210    2.147062    -19.775244    21.669703    -42.834915    -110.085854    48.886871    -12.634974    5.629762    11.391085    28.791672    3.091909    34.916294    30.526943    37.051819    -92.378754    -46.545929    20.535887    -39.330788    -26.152447    -10.330029    16.883793    -13.370191    10.645256    -9.757997    38.356964    -0.845103    4.942382    -15.332445    15.020863    0.000000    0.000000    0.000000    -20.280287    -13.311680    -16.116528    7.324776    31.120720    -13.241591    14.891846    -11.006332    -11.096312    0.000000    0.000000    0.000000    
0.014553    0.858756    0.244478    -5.988438    -0.042750    -67.712379    -4.664515    -0.176468    3.000396    6.538038    11.324796    0.373067    -5.978558    41.181263    15.823568    -14.913673    -2.241742    12.569397    -20.275810    21.381918    3.362725    -46.996391    2.064458    -19.448820    21.840900    -42.906708    -109.881737    47.820175    -12.881799    5.095673    11.417093    28.820578    3.194421    34.733040    30.330065    36.921303    -92.915573    -46.154678    19.792130    -39.120918    -26.356880    -9.916313    16.859810    -13.193048    10.067896    -10.205189    38.071194    0.153826    4.849637    -15.219325    15.073514    0.000000    0.000000    0.000000    -20.537962    -13.150476    -15.315010    8.105126    31.216457    -15.621472    13.834112    -10.864402    -12.399761    0.000000    0.000000    0.000000    
0.014553    0.859323    0.244683    -6.059053    0.037429    -67.986000    -4.603332    -0.153253    3.042913    6.537994    11.212088    0.393267    -6.064323    41.338463    15.937732    -14.844625    -2.382513    12.649079    -20.245949    21.367607    3.384157    -46.990414    1.828707    -19.479853    21.780853    -42.872200    -109.759995    48.011814    -12.790429    5.563457    11.292912    28.484741    3.260570    34.797878    30.268936    36.615395    -93.243103    -45.849548    19.352062    -38.933971    -26.478464    -9.395326    16.962803    -13.045807    9.676208    -10.594950    37.930622    0.906226    5.066153    -15.134501    14.986462    0.000000    0.000000    0.000000    -20.731163    -12.857236    -14.558985    8.696092    31.305042    -16.706398    12.767309    -10.401384    -13.597327    0.000000    0.000000    0.000000    
0.014641    0.859722    0.245196    -6.083535    0.080938    -68.247597    -4.486293    -0.166984    3.082601    6.435609    11.061312    0.425099    -6.116304    41.562710    16.043148    -14.848313    -2.530865    12.710865    -20.154949    21.332344    3.496456    -47.047230    1.679708    -19.538097    21.926922    -42.770184    -109.496033    47.785210    -12.611952    5.542183    11.243943    28.177200    3.241735    34.606030    30.205109    36.409328    -93.650970    -45.150944    18.764135    -38.679276    -26.145132    -9.144219    16.975964    -12.950877    9.504930    -10.798017    37.869667    1.405416    5.008661    -15.064325    14.964280    0.000000    0.000000    0.000000    -21.062052    -12.654900    -13.917493    9.121974    31.598503    -17.322689    11.792144    -9.311226    -13.896296    0.000000    0.000000    0.000000    
